<?xml version="1.0" encoding="UTF-8" standalone="no"?>
<svg 
	xmlns="http://www.w3.org/2000/svg" 
	width="744" 
	height="524" 
	version="1.0">
	<defs />
	<ellipse cx="377" cy="200" rx="340" ry="148" style="fill:none; stroke:#000; stroke-width:5px;" />
	<g style="fill:none; stroke:#000; stroke-width: 2;">
		<ellipse cx="435" cy="317" rx="152" ry="64" />
		<ellipse cx="312" cy="465" rx="78" ry="31" />
		<ellipse cx="210" cy="480.5" rx="30" ry="13" />
		<path d="M 181,483.6 L 156.3,462.6" />
		<path d="M 188,490 L 142.9,483.6" />
	</g>
	<g style="fill:none; stroke:#f00; stroke-width: 2;">
	  <path d="M 234.5,460.1 L 283.7,308.9" />
	  <path d="M 358.6,372.2 L 191.8,324.5" />
	  <path d="M 532.3,267.6 C 577.5,282 597.7,292.4 641.7,292.4" />
	</g>
	<g style="fill:#D0D012;">
		<ellipse cx="351" cy="50" rx="12" ry="18" />
		<ellipse cx="151" cy="308" rx="12" ry="18" />
		<ellipse cx="431" cy="345" rx="12" ry="18" />
		<ellipse cx="671" cy="276" rx="12" ry="18" />
	</g>
	<g style="font-family: Arial;">
		<g style="font-size: 40px; fill:#D0D012;">
			<text x="307" y="102">CMS</text>
			<text x="136" y="280">ALICE</text>
			<text x="419" y="319">ATLAS</text>
			<text x="584" y="251">LHCb</text>
		</g>
		<g style="font-size: 40px; fill:#000;">
			<text x="336.7" y="202.2">LHC</text>
			<text x="322.7" y="303.8">SPS</text>
			<text x="284.9" y="479.2">PS</text>
		</g>
		<g style="font-size: 32px; fill:#000;">
			<text x="132.5" y="456">p</text>
			<text x="98.6" y="490">Pb</text>
		</g>
	</g>
</svg>